<?xml version="1.0" encoding="UTF-8" standalone="no"?>
<svg width="12px" height="21px" viewBox="0 0 12 21" version="1.1" xmlns="http://www.w3.org/2000/svg" xmlns:xlink="http://www.w3.org/1999/xlink">
    <!-- Generator: Sketch 3.8.3 (29802) - http://www.bohemiancoding.com/sketch -->
    <title>recycle-bin copy 3</title>
    <desc>Created with Sketch.</desc>
    <defs></defs>
    <g id="Home" stroke="none" stroke-width="1" fill="none" fill-rule="evenodd">
        <g id="recycle-bin-copy-3" fill="#FC5649">
            <g id="Capa_1" transform="translate(6.000000, 10.500000) scale(-1, 1) rotate(-360.000000) translate(-6.000000, -10.500000) ">
                <g id="Group" transform="translate(-0.000000, 0.000000)">
                    <path d="M10.555875,4.54447368 L1.46775,4.54447368 C0.71025,4.54447368 0.094875,5.15347368 0.094875,5.90542105 L0.71475,19.3048947 C0.71475,20.0494737 1.33125,20.6540526 2.088,20.6540526 L9.93525,20.6540526 C10.693125,20.6540526 11.3085,20.0527895 11.3085,19.3166842 L11.928375,5.89289474 C11.929125,5.15015789 11.31225,4.54447368 10.555875,4.54447368 L10.555875,4.54447368 Z M9.9345,19.3225789 L2.070375,19.2938421 L1.450125,5.89363158 C1.450125,5.88478947 1.458,5.87668421 1.46775,5.87668421 L10.57275,5.88184211 L9.9345,19.3225789 L9.9345,19.3225789 Z" id="Shape"></path>
                    <path d="M6.01875,18.5658421 C6.419625,18.5658421 6.74625,18.2453158 6.74625,17.8514737 L6.74625,8.19 C6.74625,7.79652632 6.420375,7.476 6.01875,7.476 C5.61825,7.476 5.292,7.79652632 5.292,8.19 L5.292,17.8511053 C5.292375,18.2449474 5.617875,18.5658421 6.01875,18.5658421 L6.01875,18.5658421 Z" id="Shape"></path>
                    <path d="M8.650875,18.5654737 L8.658375,18.5654737 C9.0555,18.5654737 9.382125,18.249 9.38625,17.8588421 L9.498375,8.19884211 C9.500625,8.00763158 9.4275,7.82784211 9.291,7.69115789 C9.1545,7.55447368 8.97375,7.47821053 8.770875,7.476 C8.373375,7.476 8.0475,7.79247368 8.04375,8.18226316 L7.930875,17.8422632 C7.927125,18.2364737 8.24925,18.5610526 8.650875,18.5654737 L8.650875,18.5654737 Z" id="Shape"></path>
                    <path d="M3.3645,18.5654737 L3.372,18.5654737 C3.77325,18.5606842 4.096125,18.2361053 4.09125,17.8422632 L3.979125,8.18226316 C3.974625,7.79247368 3.648,7.476 3.24375,7.476 C3.04875,7.47821053 2.86725,7.55447368 2.731125,7.69115789 C2.595375,7.82784211 2.52225,8.00763158 2.5245,8.19884211 L2.636625,17.8588421 C2.64075,18.2486316 2.96775,18.5654737 3.3645,18.5654737 L3.3645,18.5654737 Z" id="Shape"></path>
                    <path d="M1.015125,4.01947368 L11.172375,3.444 C11.347875,3.43442105 11.508375,3.35815789 11.62575,3.22847368 C11.74275,3.09952632 11.802,2.93373684 11.79,2.76205263 C11.770125,2.41978947 11.482875,2.15305263 11.13375,2.15305263 L0.9765,2.72852632 C0.801375,2.73810526 0.6405,2.81436842 0.523875,2.94405263 C0.406875,3.073 0.34725,3.23878947 0.358875,3.41084211 C0.37725,3.752 0.666,4.01947368 1.015125,4.01947368 L1.015125,4.01947368 Z M1.015125,3.83010526 C1.015125,3.83010526 1.015125,3.83047368 1.015125,3.83010526 L1.015125,3.83526316 L1.015125,3.83010526 L1.015125,3.83010526 Z" id="Shape"></path>
                    <path d="M4.44525,2.31884211 L4.48425,2.31773684 C4.664625,2.30778947 4.8315,2.22894737 4.951125,2.09557895 C5.071875,1.96294737 5.132625,1.792 5.12175,1.61405263 L5.129625,1.43352632 L6.942,1.34805263 L6.951375,1.51015789 C6.97275,1.86236842 7.269375,2.13794737 7.6275,2.13794737 L7.66725,2.13684211 C7.848,2.12652632 8.0145,2.04768421 8.1345,1.91468421 C8.25525,1.78205263 8.314875,1.61073684 8.305125,1.43278947 L8.29575,1.27105263 C8.252625,0.531631579 7.60275,-0.0379473684 6.846375,0.00184210526 L5.05125,0.103526316 C4.294875,0.145894737 3.7155,0.785842105 3.760125,1.52784211 L3.7695,1.69031579 C3.78975,2.04326316 4.086375,2.31884211 4.44525,2.31884211 L4.44525,2.31884211 Z M4.44525,2.13057895 L4.44525,2.13057895 L4.44525,2.13536842 L4.44525,2.13057895 L4.44525,2.13057895 Z" id="Shape"></path>
                </g>
            </g>
        </g>
    </g>
</svg>